:FULLY-SPECIFIED
:FORCE-ALL-JOINTS-BE-3DOF
:DEGREES
437
root 10.441 17.1973 25.3703 6.16793 -0.181605 -1.53457
lfemur -28.0055 3.00319 -22.5006
ltibia 25.7954 0 0
lfoot -10.8351 6.78647 0
ltoes -5.05371 0 0
rfemur -4.60199 0.603989 22.9264
rtibia 41.2587 0 0
rfoot -7.31538 -2.52537 0
rtoes -18.026 0 0
lowerback -6.74031 0.583971 -0.38545
upperback -1.20966 0.661377 2.18725
thorax 2.58779 0.33432 2.61412
lowerneck -20.381 -4.86559 -12.379
upperneck 23.2881 -5.99478 11.5782
head 11.7694 -2.39604 5.4586
lclavicle -2.79323e-14 -8.27138e-15 0
lhumerus -36.3835 -10.8248 92.0553
lradius 22.8037 0 0
lwrist -0.677535 0 0
lhand -9.39194 -22.4805 0
lfingers 7.12502 0 0
lthumb 16.5682 6.81817 0
rclavicle -2.79323e-14 -8.27138e-15 0
rhumerus -39.8362 11.8127 -87.7542
rradius 35.6295 0 0
rwrist -14.0049 0 0
rhand -29.9978 -28.9393 0
rfingers 7.12502 0 0
rthumb -3.31528 -58.8926 0
438
root 10.4641 17.215 25.5146 6.11062 -0.126631 -1.28932
lfemur -27.423 3.05639 -22.8899
ltibia 25.8364 0 0
lfoot -10.9605 6.65747 0
ltoes -4.71815 0 0
rfemur -5.57225 0.407487 22.5473
rtibia 42.8456 0 0
rfoot -7.40886 -2.89353 0
rtoes -18.1182 0 0
lowerback -6.65733 0.472838 -0.545378
upperback -1.23035 0.529674 2.1322
thorax 2.52258 0.267846 2.63155
lowerneck -20.4238 -4.8127 -12.3439
upperneck 23.354 -5.91402 11.5168
head 11.7869 -2.36293 5.44483
lclavicle -2.8986e-14 -7.53443e-15 0
lhumerus -35.693 -10.8958 91.9115
lradius 22.6611 0 0
lwrist -0.937786 0 0
lhand -9.50705 -22.5397 0
lfingers 7.12502 0 0
lthumb 16.4574 6.76866 0
rclavicle -2.8986e-14 -7.53443e-15 0
rhumerus -40.1958 11.7363 -87.7907
rradius 35.5427 0 0
rwrist -13.9147 0 0
rhand -30.0251 -29.1264 0
rfingers 7.12502 0 0
rthumb -3.34173 -59.0794 0
439
root 10.4873 17.2327 25.659 6.0533 -0.0716566 -1.04407
lfemur -26.8404 3.1096 -23.2792
ltibia 25.8774 0 0
lfoot -11.0859 6.52847 0
ltoes -4.3826 0 0
rfemur -6.54251 0.210985 22.1681
rtibia 44.4324 0 0
rfoot -7.50234 -3.26169 0
rtoes -18.2104 0 0
lowerback -6.57435 0.361704 -0.705305
upperback -1.25103 0.397972 2.07715
thorax 2.45737 0.201371 2.64897
lowerneck -20.4666 -4.7598 -12.3089
upperneck 23.4199 -5.83326 11.4554
head 11.8043 -2.32982 5.43107
lclavicle -3.00398e-14 -6.79747e-15 0
lhumerus -35.0025 -10.9668 91.7678
lradius 22.5186 0 0
lwrist -1.19804 0 0
lhand -9.62216 -22.5989 0
lfingers 7.12502 0 0
lthumb 16.3466 6.71914 0
rclavicle -3.00398e-14 -6.79747e-15 0
rhumerus -40.5555 11.6598 -87.8271
rradius 35.4559 0 0
rwrist -13.8246 0 0
rhand -30.0525 -29.3136 0
rfingers 7.12502 0 0
rthumb -3.36817 -59.2662 0
440
root 10.5104 17.2503 25.8033 5.99598 -0.0166826 -0.798823
lfemur -26.2578 3.1628 -23.6685
ltibia 25.9184 0 0
lfoot -11.2113 6.39947 0
ltoes -4.04704 0 0
rfemur -7.51277 0.0144834 21.789
rtibia 46.0193 0 0
rfoot -7.59582 -3.62984 0
rtoes -18.3026 0 0
lowerback -6.49137 0.250571 -0.865232
upperback -1.27172 0.266269 2.02211
thorax 2.39216 0.134896 2.66639
lowerneck -20.5094 -4.70691 -12.2738
upperneck 23.4858 -5.75249 11.3939
head 11.8218 -2.29671 5.4173
lclavicle -3.10936e-14 -6.06051e-15 0
lhumerus -34.312 -11.0378 91.624
lradius 22.376 0 0
lwrist -1.45829 0 0
lhand -9.73727 -22.658 0
lfingers 7.12502 0 0
lthumb 16.2358 6.66963 0
rclavicle -3.10936e-14 -6.06051e-15 0
rhumerus -40.9151 11.5833 -87.8636
rradius 35.3691 0 0
rwrist -13.7345 0 0
rhand -30.0799 -29.5008 0
rfingers 7.12502 0 0
rthumb -3.39462 -59.453 0
441
root 10.5336 17.268 25.9476 5.93866 0.0382915 -0.553573
lfemur -25.6752 3.216 -24.0577
ltibia 25.9594 0 0
lfoot -11.3368 6.27047 0
ltoes -3.71149 0 0
rfemur -8.48303 -0.182019 21.4099
rtibia 47.6062 0 0
rfoot -7.68931 -3.998 0
rtoes -18.3947 0 0
lowerback -6.4084 0.139438 -1.02516
upperback -1.29241 0.134567 1.96706
thorax 2.32695 0.0684217 2.68382
lowerneck -20.5522 -4.65401 -12.2388
upperneck 23.5518 -5.67173 11.3325
head 11.8393 -2.2636 5.40353
lclavicle -3.21473e-14 -5.32355e-15 0
lhumerus -33.6216 -11.1087 91.4803
lradius 22.2334 0 0
lwrist -1.71854 0 0
lhand -9.85238 -22.7172 0
lfingers 7.12502 0 0
lthumb 16.125 6.62012 0
rclavicle -3.21473e-14 -5.32355e-15 0
rhumerus -41.2747 11.5068 -87.9
rradius 35.2823 0 0
rwrist -13.6443 0 0
rhand -30.1073 -29.6879 0
rfingers 7.12502 0 0
rthumb -3.42107 -59.6397 0
442
root 10.5567 17.2857 26.092 5.88135 0.0932655 -0.308322
lfemur -25.0927 3.26921 -24.447
ltibia 26.0004 0 0
lfoot -11.4622 6.14147 0
ltoes -3.37594 0 0
rfemur -9.45329 -0.37852 21.0307
rtibia 49.1931 0 0
rfoot -7.78279 -4.36616 0
rtoes -18.4869 0 0
lowerback -6.32542 0.0283041 -1.18509
upperback -1.3131 0.00286439 1.91201
thorax 2.26174 0.0019471 2.70124
lowerneck -20.595 -4.60112 -12.2037
upperneck 23.6177 -5.59097 11.2711
head 11.8567 -2.23048 5.38977
lclavicle -3.32011e-14 -4.58659e-15 0
lhumerus -32.9311 -11.1797 91.3365
lradius 22.0908 0 0
lwrist -1.97879 0 0
lhand -9.9675 -22.7764 0
lfingers 7.12502 0 0
lthumb 16.0142 6.57061 0
rclavicle -3.32011e-14 -4.58659e-15 0
rhumerus -41.6344 11.4303 -87.9365
rradius 35.1955 0 0
rwrist -13.5542 0 0
rhand -30.1347 -29.8751 0
rfingers 7.12502 0 0
rthumb -3.44751 -59.8265 0
443
root 10.5799 17.3033 26.2363 5.82403 0.14824 -0.0630722
lfemur -24.5101 3.32241 -24.8363
ltibia 26.0414 0 0
lfoot -11.5876 6.01247 0
ltoes -3.04038 0 0
rfemur -10.4236 -0.575022 20.6516
rtibia 50.7799 0 0
rfoot -7.87627 -4.73432 0
rtoes -18.5791 0 0
lowerback -6.24244 -0.0828293 -1.34501
upperback -1.33378 -0.128838 1.85696
thorax 2.19653 -0.0645275 2.71867
lowerneck -20.6378 -4.54822 -12.1687
upperneck 23.6836 -5.5102 11.2096
head 11.8742 -2.19737 5.376
lclavicle -3.42549e-14 -3.84963e-15 0
lhumerus -32.2406 -11.2507 91.1928
lradius 21.9483 0 0
lwrist -2.23904 0 0
lhand -10.0826 -22.8356 0
lfingers 7.12502 0 0
lthumb 15.9034 6.52109 0
rclavicle -3.42549e-14 -3.84963e-15 0
rhumerus -41.994 11.3538 -87.9729
rradius 35.1087 0 0
rwrist -13.4641 0 0
rhand -30.1621 -30.0623 0
rfingers 7.12502 0 0
rthumb -3.47396 -60.0133 0
